<svg width="18" height="18" viewBox="0 0 18 18" fill="none" xmlns="http://www.w3.org/2000/svg">
    <g clip-path="url(#a)" stroke="#030f40" stroke-width="1.5" stroke-linecap="round" stroke-linejoin="round">
        <path d="M1.313 4.776 16.72 1.502M10.2.587l-3.3.702a1.125 1.125 0 0 0-.868 1.336l.234 1.101 5.502-1.17-.234-1.1A1.125 1.125 0 0 0 10.2.587v0ZM8.063 13.5V7.875m3.375 5.625V7.875M13.97 4.5h1.968L14.9 16.405a1.125 1.125 0 0 1-1.125 1.032H5.723a1.125 1.125 0 0 1-1.12-1.032l-.778-9.372"/>
    </g>
    <defs>
        <clipPath id="a">
            <path fill="#fff" d="M0 0h18v18H0z"/>
        </clipPath>
    </defs>
</svg>
