<svg width="18" height="18" viewBox="0 0 18 18" fill="none" xmlns="http://www.w3.org/2000/svg">
    <g clip-path="url(#a)" stroke="#030f40" stroke-width="1.5" stroke-linecap="round" stroke-linejoin="round">
        <path d="M16.32 6.19v-4.5A1.125 1.125 0 0 0 15.195.565h-13.5A1.125 1.125 0 0 0 .57 1.69v12.375a1.125 1.125 0 0 0 1.125 1.125h4.5M.57 3.94h15.75m-4.5 8.437a1.125 1.125 0 1 0 2.25 0 1.125 1.125 0 0 0-2.25 0v0Z"/>
        <path d="m13.9 8.025.333 1.089a.744.744 0 0 0 .88.51l1.103-.255a1.004 1.004 0 0 1 .959 1.664l-.773.834a.75.75 0 0 0 0 1.021l.773.837a1.004 1.004 0 0 1-.956 1.664l-1.104-.256a.744.744 0 0 0-.88.51l-.332 1.09a.998.998 0 0 1-1.911 0l-.332-1.09a.745.745 0 0 0-.88-.51l-1.104.256a1.004 1.004 0 0 1-.958-1.664l.772-.834a.75.75 0 0 0 0-1.021l-.772-.834a1.004 1.004 0 0 1 .957-1.666l1.104.256a.745.745 0 0 0 .88-.511l.332-1.09a.997.997 0 0 1 1.91 0v0Z"/>
    </g>
    <defs>
        <clipPath id="a">
            <path fill="#fff" d="M0 0h18v18H0z"/>
        </clipPath>
    </defs>
</svg>
