<svg width="18" height="18" viewBox="0 0 18 18" fill="none" xmlns="http://www.w3.org/2000/svg">
    <g clip-path="url(#a)" stroke="#030f40" stroke-width="1.5" stroke-linecap="round" stroke-linejoin="round">
        <path d="M6.75 5.625a2.25 2.25 0 1 0 4.5 0 2.25 2.25 0 0 0-4.5 0v0Z"/>
        <path d="M9 .563a5.062 5.062 0 0 1 5.063 5.062c0 2.438-3.85 7.895-4.835 9.253a.281.281 0 0 1-.356.085.281.281 0 0 1-.1-.085c-.986-1.358-4.835-6.815-4.835-9.253A5.063 5.063 0 0 1 9 .562v0Z"/>
        <path d="M13.484 13.338c2.05.406 3.391 1.083 3.391 1.85 0 1.242-3.525 2.25-7.875 2.25s-7.875-1.008-7.875-2.25c0-.766 1.336-1.441 3.375-1.848"/>
    </g>
    <defs>
        <clipPath id="a">
            <path fill="#fff" d="M0 0h18v18H0z"/>
        </clipPath>
    </defs>
</svg>
