<svg width="18" height="18" viewBox="0 0 18 18" fill="none" xmlns="http://www.w3.org/2000/svg">
    <g clip-path="url(#a)" stroke="#030f40" stroke-width="1.5" stroke-linecap="round" stroke-linejoin="round">
        <path d="M7.875 9.395a.733.733 0 0 1-.731.735h-5.85a.734.734 0 0 1-.731-.735V1.302a.734.734 0 0 1 .732-.735l5.85.01a.733.733 0 0 1 .73.735v8.083Zm9.56-4.487a.727.727 0 0 1-.732.722h-5.85a.726.726 0 0 1-.73-.722v-3.61a.726.726 0 0 1 .729-.721l5.85-.01a.728.728 0 0 1 .733.722v3.619Zm-9.56 11.81a.728.728 0 0 1-.733.724l-5.85-.01a.727.727 0 0 1-.73-.723v-3.607a.727.727 0 0 1 .732-.723h5.85a.727.727 0 0 1 .731.723v3.616Zm2.979.724a.734.734 0 0 1-.732-.736v-8.09a.735.735 0 0 1 .731-.736h5.85a.734.734 0 0 1 .732.735v8.082a.735.735 0 0 1-.73.735l-5.85.01Z"/>
    </g>
    <defs>
        <clipPath id="a">
            <path fill="#fff" d="M0 0h18v18H0z"/>
        </clipPath>
    </defs>
</svg>
