<svg width="125" height="40" viewBox="0 0 125 40" fill="none" xmlns="http://www.w3.org/2000/svg">
    <g clip-path="url(#a)">
        <path d="M41.531 18.33c.494 0 .968.198 1.317.551a1.89 1.89 0 0 1 0 2.66 1.849 1.849 0 0 1-1.317.552 3.988 3.988 0 0 1-.44-.053 1.588 1.588 0 0 0-.834 0 1.152 1.152 0 0 0-.692 1.049 1.215 1.215 0 0 0 .692 1.05 4.183 4.183 0 0 0 3.275-.275 4.17 4.17 0 0 0 1.517-1.385 4.224 4.224 0 0 0 .353-3.988 4.19 4.19 0 0 0-1.248-1.636 4.116 4.116 0 0 0-3.908-.67 4.151 4.151 0 0 0-1.713 1.128s-7.316 7.616-9.04 9.112a8.322 8.322 0 0 1-5.564 2.172 8.234 8.234 0 0 1-3.295-.525 8.299 8.299 0 0 1-2.824-1.79 8.394 8.394 0 0 1-1.9-2.769 8.465 8.465 0 0 1 0-6.6 8.394 8.394 0 0 1 1.9-2.768 8.299 8.299 0 0 1 2.824-1.79 8.234 8.234 0 0 1 3.295-.525c.58.016 1.159.075 1.731.174a.98.98 0 0 0 .73-.272.999.999 0 0 0 .078-1.361 1.003 1.003 0 0 0-.58-.35 10.679 10.679 0 0 0-1.945-.185 10.195 10.195 0 0 0-4.825 1.202 10.312 10.312 0 0 0-3.703 3.348 10.474 10.474 0 0 0-1.039 9.684 10.376 10.376 0 0 0 2.907 4.07 10.235 10.235 0 0 0 4.458 2.218c1.644.36 3.35.306 4.968-.155a10.252 10.252 0 0 0 4.314-2.49l9.186-8.81a1.787 1.787 0 0 1 1.322-.573Zm0 7.858a11.91 11.91 0 0 1-1.655-.196 1.129 1.129 0 0 0-.73.28 1.15 1.15 0 0 0-.226 1.462c.14.232.356.406.61.492a7.728 7.728 0 0 0 2.018.259 8.127 8.127 0 0 0 3.881-.981 8.22 8.22 0 0 0 2.959-2.72 8.347 8.347 0 0 0 .714-7.803 8.265 8.265 0 0 0-2.414-3.222 8.154 8.154 0 0 0-3.637-1.683 8.114 8.114 0 0 0-3.993.257 8.18 8.18 0 0 0-3.395 2.137l-8.268 9.252c-.572.576-1.275 1-2.048 1.236a4.863 4.863 0 0 1-4.538-.917 4.956 4.956 0 0 1-1.42-1.937 5.004 5.004 0 0 1 .46-4.652 4.927 4.927 0 0 1 1.769-1.616 4.87 4.87 0 0 1 2.314-.583c.37.023.74.068 1.105.133a.979.979 0 0 0 .68-.3.999.999 0 0 0 .279-.697c0-.229-.076-.451-.216-.631a1.01 1.01 0 0 0-.556-.362 6.746 6.746 0 0 0-1.292-.122 6.83 6.83 0 0 0-3.29.838 6.91 6.91 0 0 0-2.494 2.324 7.014 7.014 0 0 0-.516 6.622 6.94 6.94 0 0 0 2.104 2.689 6.818 6.818 0 0 0 6.498 1.025 6.88 6.88 0 0 0 2.816-1.913l8.05-8.602a5.914 5.914 0 0 1 2.413-1.662 5.862 5.862 0 0 1 5.597.854 5.966 5.966 0 0 1 1.82 2.307 6.03 6.03 0 0 1-.426 5.7 5.94 5.94 0 0 1-2.142 2.006 5.872 5.872 0 0 1-2.83.726Zm8.656-14.722a12.16 12.16 0 0 0-3.969-2.687 12.063 12.063 0 0 0-4.687-.936A12.196 12.196 0 0 0 35.985 9.2a12.327 12.327 0 0 0-4.342 3.74s-6.201 7.814-6.51 8.21a1.507 1.507 0 0 1-2.071.323 1.548 1.548 0 0 1-.422-2.074 1.515 1.515 0 0 1 1.292-.722c.156 0 .274.018.402.018a.982.982 0 0 0 .683-.298c.18-.186.282-.435.283-.695 0-.413-.284-1.05-1.247-1.05a3.472 3.472 0 0 0-2.553.959 3.568 3.568 0 0 0-.087 5.069 3.5 3.5 0 0 0 3.927.747 3.498 3.498 0 0 0 1.168-.847l7.146-8.536a9.986 9.986 0 0 1 3.955-3.086 9.883 9.883 0 0 1 9.627.996 10.044 10.044 0 0 1 3.253 3.832 10.157 10.157 0 0 1-.495 9.76 10.014 10.014 0 0 1-3.624 3.477 9.896 9.896 0 0 1-4.839 1.264c-1.561 0-2.077-.29-2.455-.29a1.135 1.135 0 0 0-.741.257 1.156 1.156 0 0 0-.276 1.462c.132.237.343.42.595.515a12.13 12.13 0 0 0 7.773-.681 12.287 12.287 0 0 0 5.787-5.285 12.47 12.47 0 0 0 1.451-7.743 12.412 12.412 0 0 0-3.475-7.055h-.003Z"
              fill="#A2C617"/>
        <path d="M67.495 19.998 61.003 17.6a.872.872 0 0 1-.444-.39.886.886 0 0 1 .2-1.1.864.864 0 0 1 .552-.206h7.046v-2.57h-7.118a3.393 3.393 0 0 0-2.19.791 3.455 3.455 0 0 0-1.18 2.024 3.478 3.478 0 0 0 .377 2.318 3.424 3.424 0 0 0 1.76 1.536l6.492 2.398a.857.857 0 0 1 .557.819.881.881 0 0 1-.534.807.857.857 0 0 1-.331.067h-8.376v2.573h8.462a3.379 3.379 0 0 0 2.224-.768 3.44 3.44 0 0 0 1.2-2.041 3.464 3.464 0 0 0-.4-2.34 3.408 3.408 0 0 0-1.805-1.519Zm35.918 4.095a.86.86 0 0 1-.556-.201.874.874 0 0 1-.201-1.104.869.869 0 0 1 .449-.388l6.488-2.398a3.427 3.427 0 0 0 1.758-1.533 3.48 3.48 0 0 0 .38-2.314 3.457 3.457 0 0 0-1.173-2.024 3.394 3.394 0 0 0-2.184-.798h-7.115v2.57h7.046a.876.876 0 0 1 .848.72.88.88 0 0 1-.54.976l-6.492 2.4a3.41 3.41 0 0 0-1.806 1.518 3.465 3.465 0 0 0-.398 2.34 3.44 3.44 0 0 0 1.199 2.041 3.378 3.378 0 0 0 2.224.768h8.458v-2.573h-8.385Zm-23.014-2.798c0 2.022-1.205 3.064-3.064 3.064-1.86 0-3.068-1.05-3.061-3.064v-7.962h-2.77v8.148c0 2.979 2.133 5.36 5.83 5.36 3.698 0 5.835-2.364 5.835-5.36v-8.148h-2.77v7.962Zm11.678-8.133c-.902-.02-1.8.141-2.64.475a6.77 6.77 0 0 0-2.25 1.473 6.847 6.847 0 0 0-1.508 2.239 6.903 6.903 0 0 0 0 5.309c.35.84.863 1.601 1.508 2.239a6.77 6.77 0 0 0 2.25 1.472c.84.335 1.738.497 2.64.476a7.09 7.09 0 0 0 3.138-.675 7.16 7.16 0 0 0 2.53-1.993l-2.123-1.525c-.962 1.13-2.129 1.773-3.541 1.773a4.166 4.166 0 0 1-2.626-1.008 4.24 4.24 0 0 1-1.404-2.457H98.68a8.01 8.01 0 0 0 .066-.962 6.777 6.777 0 0 0-.473-2.612 6.726 6.726 0 0 0-1.438-2.223 6.65 6.65 0 0 0-2.179-1.487 6.595 6.595 0 0 0-2.579-.518v.004Zm-3.95 5.595c.2-.908.7-1.719 1.419-2.3a4.023 4.023 0 0 1 2.531-.899c.92 0 1.814.317 2.532.899a4.093 4.093 0 0 1 1.419 2.3h-7.901Z"
              fill="#1B1D3B"/>
    </g>
    <defs>
        <clipPath id="a">
            <path fill="#fff" d="M.455 0H125v40H.455z"/>
        </clipPath>
    </defs>
</svg>