<svg width="16" height="16" viewBox="0 0 16 16" fill="none" xmlns="http://www.w3.org/2000/svg">
<path d="M8 12.5C7.95055 12.5 7.90222 12.5147 7.86111 12.5421C7.82 12.5696 7.78795 12.6086 7.76903 12.6543C7.75011 12.7 7.74516 12.7503 7.7548 12.7988C7.76445 12.8473 7.78826 12.8918 7.82322 12.9268C7.85819 12.9617 7.90273 12.9855 7.95123 12.9952C7.99972 13.0048 8.04999 12.9999 8.09567 12.981C8.14135 12.962 8.1804 12.93 8.20787 12.8889C8.23534 12.8478 8.25 12.7994 8.25 12.75C8.25 12.6837 8.22366 12.6201 8.17678 12.5732C8.12989 12.5263 8.0663 12.5 8 12.5Z" stroke="#EB4A65" stroke-width="1.5" stroke-linecap="round" stroke-linejoin="round"/>
<path d="M8 10.5V5.5" stroke="#EB4A65" stroke-width="1.5" stroke-linecap="round"/>
<path d="M9.08067 1.17333C8.98146 0.971338 8.82761 0.801198 8.6366 0.682211C8.44559 0.563224 8.22505 0.500153 8.00001 0.500153C7.77496 0.500153 7.55443 0.563224 7.36341 0.682211C7.1724 0.801198 7.01856 0.971338 6.91934 1.17333L0.604006 14.0387C0.527986 14.1933 0.492631 14.3648 0.501278 14.5369C0.509924 14.709 0.562288 14.876 0.653425 15.0223C0.744562 15.1685 0.871466 15.2891 1.02216 15.3727C1.17285 15.4563 1.34235 15.5001 1.51467 15.5H14.4853C14.6577 15.5001 14.8272 15.4563 14.9779 15.3727C15.1285 15.2891 15.2555 15.1685 15.3466 15.0223C15.4377 14.876 15.4901 14.709 15.4987 14.5369C15.5074 14.3648 15.472 14.1933 15.396 14.0387L9.08067 1.17333Z" stroke="#EB4A65" stroke-width="1.5" stroke-linecap="round" stroke-linejoin="round"/>
</svg>
