<svg width="25" height="24" viewBox="0 0 25 24" fill="none" xmlns="http://www.w3.org/2000/svg"><path d="M12.962.93 1.922 8.951 6.139 21.93h13.646l4.217-12.98" stroke="#030F40" stroke-width="2"/><path fill-rule="evenodd" clip-rule="evenodd" d="m6.1 5.66.81-.588 12.309 16.625h-1.244L6.1 5.66ZM3.123 7.823l.81-.588L14.64 21.697h-1.244L3.123 7.823Zm.354 5.778-.973-2.995 8.212 11.09H9.47l-5.994-8.095Zm17.03 5.775L8.866 3.65l.809-.588 11.213 15.145-.38 1.168Zm1.397-4.298L11.842 1.488 12.65.9l9.633 13.01-.38 1.168Zm1.577-4.852-.38 1.168-5.3-7.158 2.693 1.957 2.987 4.033Z" fill="#030F40"/></svg>