<svg width="24" height="24" viewBox="0 0 24 24" fill="none" xmlns="http://www.w3.org/2000/svg">
<path fill-rule="evenodd" clip-rule="evenodd" d="M2.23486 5.83521C2.23486 5.28292 2.68258 4.83521 3.23486 4.83521H21.2349C21.7871 4.83521 22.2349 5.28292 22.2349 5.83521C22.2349 6.38749 21.7871 6.83521 21.2349 6.83521H3.23486C2.68258 6.83521 2.23486 6.38749 2.23486 5.83521Z" fill="#000000"/>
<path fill-rule="evenodd" clip-rule="evenodd" d="M10.2349 2.83521C9.96965 2.83521 9.71529 2.94056 9.52776 3.1281C9.34022 3.31563 9.23486 3.56999 9.23486 3.83521V4.83521H15.2349V3.83521C15.2349 3.56999 15.1295 3.31563 14.942 3.1281C14.7544 2.94056 14.5001 2.83521 14.2349 2.83521H10.2349ZM17.2349 4.83521V3.83521C17.2349 3.03956 16.9188 2.27649 16.3562 1.71388C15.7936 1.15128 15.0305 0.835205 14.2349 0.835205H10.2349C9.43921 0.835205 8.67615 1.15128 8.11354 1.71388C7.55093 2.27649 7.23486 3.03956 7.23486 3.83521V4.83521H5.23486C4.68258 4.83521 4.23486 5.28292 4.23486 5.83521V19.8352C4.23486 20.6309 4.55093 21.3939 5.11354 21.9565C5.67615 22.5191 6.43921 22.8352 7.23486 22.8352H17.2349C18.0305 22.8352 18.7936 22.5191 19.3562 21.9565C19.9188 21.3939 20.2349 20.6309 20.2349 19.8352V5.83521C20.2349 5.28292 19.7871 4.83521 19.2349 4.83521H17.2349ZM6.23486 6.83521V19.8352C6.23486 20.1004 6.34022 20.3548 6.52776 20.5423C6.71529 20.7298 6.96965 20.8352 7.23486 20.8352H17.2349C17.5001 20.8352 17.7544 20.7298 17.942 20.5423C18.1295 20.3548 18.2349 20.1004 18.2349 19.8352V6.83521H6.23486Z" fill="#000000"/>
<path fill-rule="evenodd" clip-rule="evenodd" d="M10.2349 9.83521C10.7871 9.83521 11.2349 10.2829 11.2349 10.8352V16.8352C11.2349 17.3875 10.7871 17.8352 10.2349 17.8352C9.68258 17.8352 9.23486 17.3875 9.23486 16.8352V10.8352C9.23486 10.2829 9.68258 9.83521 10.2349 9.83521Z" fill="#000000"/>
<path fill-rule="evenodd" clip-rule="evenodd" d="M14.2349 9.83521C14.7871 9.83521 15.2349 10.2829 15.2349 10.8352V16.8352C15.2349 17.3875 14.7871 17.8352 14.2349 17.8352C13.6826 17.8352 13.2349 17.3875 13.2349 16.8352V10.8352C13.2349 10.2829 13.6826 9.83521 14.2349 9.83521Z" fill="#000000"/>
</svg>
