<svg width="16" height="16" viewBox="0 0 17 16" fill="none" xmlns="http://www.w3.org/2000/svg"><g clip-path="url(#a)" stroke="currentColor" stroke-width="1.5" stroke-linecap="round" stroke-linejoin="round"><path d="M8 3.5C5.313 3.456 2.533 5.334.786 7.258a1.109 1.109 0 0 0 0 1.484C2.496 10.624 5.266 12.546 8 12.5c2.733.046 5.505-1.876 7.216-3.758a1.109 1.109 0 0 0 0-1.484C13.466 5.333 10.687 3.455 8 3.5Z"/><path d="M10.5 8a2.5 2.5 0 1 1-5-.001 2.5 2.5 0 0 1 5 .001Z"/></g><defs><clipPath id="a"><path fill="#fff" d="M0 0h16v16H0z"/></clipPath></defs></svg>
